<svg width="525" height="600" viewBox="0 0 525 600" fill="none" xmlns="http://www.w3.org/2000/svg">
<rect x="303" width="75" height="75" transform="rotate(90 303 0)" fill="#1A0C6D"/>
<rect x="150" width="300" height="150" transform="rotate(90 150 0)" fill="#1A0C6D"/>
<rect x="150" y="300" width="300" height="150" transform="rotate(90 150 300)" fill="#1A0C6D"/>
<rect x="450" y="150" width="150" height="75" transform="rotate(90 450 150)" fill="#1A0C6D"/>
<rect x="375" y="450" width="150" height="75" transform="rotate(90 375 450)" fill="#1A0C6D"/>
<rect x="450" y="450" width="150" height="75" transform="rotate(90 450 450)" fill="#1A0C6D"/>
<rect x="225" y="450" width="150" height="75" transform="rotate(90 225 450)" fill="#1A0C6D"/>
<rect x="525" width="150" height="75" transform="rotate(90 525 0)" fill="#1A0C6D"/>
<rect x="375" width="300" height="75" transform="rotate(90 375 0)" fill="#1A0C6D"/>
<rect x="300" y="300" width="300" height="75" transform="rotate(90 300 300)" fill="#1A0C6D"/>
</svg>
